<svg viewBox="0 0 1200 750" xmlns="http://www.w3.org/2000/svg" font-family="system-ui,-apple-system,sans-serif">
  <rect width="1200" height="750" fill="#f3f4f6"/>
  <rect x="0" y="0" width="220" height="750" fill="#1e2130"/>
  <text x="28" y="36" font-size="14" font-weight="700" fill="#ffffff">CGen PM</text>
  <rect x="16" y="100" width="188" height="36" rx="8" fill="#4f46e5" opacity="0.2"/>
  <text x="36" y="124" font-size="13" font-weight="600" fill="#818cf8">💬  Chat</text>
  <!-- Top bar -->
  <rect x="220" y="0" width="980" height="56" fill="#ffffff" stroke="#e5e7eb"/>
  <text x="248" y="34" font-size="14" font-weight="600" fill="#111827">Chat — Q2 Sprint 4</text>
  <!-- Main: Routing preview card (center of screen) -->
  <rect x="240" y="72" width="940" height="622" rx="10" fill="#ffffff" stroke="#e5e7eb"/>
  <rect x="240" y="72" width="940" height="64" rx="10" fill="#4f46e5"/>
  <rect x="240" y="112" width="940" height="24" fill="#4f46e5"/>
  <text x="600" y="98" text-anchor="middle" font-size="15" font-weight="700" fill="#ffffff">⚡ Routing Preview — P01 New Feature Request</text>
  <text x="600" y="118" text-anchor="middle" font-size="12" fill="#c7d2fe">Review who will be notified before you fire this work event</text>
  <!-- 3 columns: Must Respond / Optional / Skipped -->
  <!-- Must Respond -->
  <rect x="264" y="152" width="270" height="500" rx="8" fill="#fef2f2" stroke="#fca5a5"/>
  <rect x="264" y="152" width="270" height="40" rx="8" fill="#fee2e2"/>
  <rect x="264" y="178" width="270" height="14" fill="#fee2e2"/>
  <text x="399" y="176" text-anchor="middle" font-size="12" font-weight="700" fill="#dc2626">MUST RESPOND  ·  4 roles</text>
  <text x="399" y="200" text-anchor="middle" font-size="11" fill="#9ca3af">Tickets auto-created · SLA 4h</text>
  <!-- Role rows -->
  <rect x="280" y="212" width="238" height="48" rx="8" fill="#ffffff" stroke="#fca5a5"/>
  <circle cx="302" cy="236" r="14" fill="#fee2e2"/>
  <text x="302" y="241" text-anchor="middle" font-size="10" font-weight="700" fill="#dc2626">CTO</text>
  <text x="324" y="230" font-size="12" font-weight="600" fill="#111827">CTO</text>
  <text x="324" y="246" font-size="11" fill="#6b7280">Marcus Chen</text>
  <rect x="456" y="224" width="50" height="18" rx="9" fill="#fee2e2"/>
  <text x="481" y="237" text-anchor="middle" font-size="10" font-weight="600" fill="#dc2626">approve</text>
  <rect x="280" y="266" width="238" height="48" rx="8" fill="#ffffff" stroke="#fca5a5"/>
  <circle cx="302" cy="290" r="14" fill="#fee2e2"/>
  <text x="302" y="295" text-anchor="middle" font-size="10" font-weight="700" fill="#dc2626">ARCH</text>
  <text x="324" y="284" font-size="12" font-weight="600" fill="#111827">Chief Architect</text>
  <text x="324" y="300" font-size="11" fill="#6b7280">Unassigned</text>
  <rect x="440" y="278" width="66" height="18" rx="9" fill="#fef3c7"/>
  <text x="473" y="291" text-anchor="middle" font-size="10" font-weight="600" fill="#d97706">review</text>
  <rect x="280" y="320" width="238" height="48" rx="8" fill="#ffffff" stroke="#fca5a5"/>
  <circle cx="302" cy="344" r="14" fill="#dbeafe"/>
  <text x="302" y="349" text-anchor="middle" font-size="10" font-weight="700" fill="#2563eb">PM</text>
  <text x="324" y="338" font-size="12" font-weight="600" fill="#111827">Product Manager</text>
  <text x="324" y="354" font-size="11" fill="#6b7280">Alex Johnson</text>
  <rect x="456" y="332" width="50" height="18" rx="9" fill="#fee2e2"/>
  <text x="481" y="345" text-anchor="middle" font-size="10" font-weight="600" fill="#dc2626">approve</text>
  <rect x="280" y="374" width="238" height="48" rx="8" fill="#ffffff" stroke="#fca5a5"/>
  <circle cx="302" cy="398" r="14" fill="#dcfce7"/>
  <text x="302" y="403" text-anchor="middle" font-size="10" font-weight="700" fill="#16a34a">FE</text>
  <text x="324" y="392" font-size="12" font-weight="600" fill="#111827">FE Tech Lead</text>
  <text x="324" y="408" font-size="11" fill="#6b7280">Sara Reyes</text>
  <rect x="448" y="386" width="66" height="18" rx="9" fill="#fef3c7"/>
  <text x="481" y="399" text-anchor="middle" font-size="10" font-weight="600" fill="#d97706">review</text>
  <!-- Optional -->
  <rect x="554" y="152" width="270" height="500" rx="8" fill="#fffbeb" stroke="#fde68a"/>
  <rect x="554" y="152" width="270" height="40" rx="8" fill="#fef3c7"/>
  <rect x="554" y="178" width="270" height="14" fill="#fef3c7"/>
  <text x="689" y="176" text-anchor="middle" font-size="12" font-weight="700" fill="#d97706">OPTIONAL  ·  3 roles</text>
  <text x="689" y="200" text-anchor="middle" font-size="11" fill="#9ca3af">No tickets · FYI only</text>
  <rect x="570" y="212" width="238" height="48" rx="8" fill="#ffffff" stroke="#fde68a"/>
  <circle cx="592" cy="236" r="14" fill="#fef3c7"/>
  <text x="592" y="241" text-anchor="middle" font-size="10" font-weight="700" fill="#d97706">BE</text>
  <text x="614" y="230" font-size="12" font-weight="600" fill="#111827">BE Tech Lead</text>
  <text x="614" y="246" font-size="11" fill="#6b7280">James Kim</text>
  <rect x="570" y="266" width="238" height="48" rx="8" fill="#ffffff" stroke="#fde68a"/>
  <circle cx="592" cy="290" r="14" fill="#fef3c7"/>
  <text x="592" y="295" text-anchor="middle" font-size="10" font-weight="700" fill="#d97706">EM</text>
  <text x="614" y="284" font-size="12" font-weight="600" fill="#111827">Engineering Manager</text>
  <text x="614" y="300" font-size="11" fill="#6b7280">Ravi Patel</text>
  <rect x="570" y="320" width="238" height="48" rx="8" fill="#ffffff" stroke="#fde68a"/>
  <circle cx="592" cy="344" r="14" fill="#fef3c7"/>
  <text x="592" y="349" text-anchor="middle" font-size="10" font-weight="700" fill="#d97706">UX</text>
  <text x="614" y="338" font-size="12" font-weight="600" fill="#111827">UX Designer</text>
  <text x="614" y="354" font-size="11" fill="#6b7280">Ling Wei</text>
  <!-- Skipped -->
  <rect x="844" y="152" width="270" height="500" rx="8" fill="#f9fafb" stroke="#e5e7eb"/>
  <rect x="844" y="152" width="270" height="40" rx="8" fill="#f3f4f6"/>
  <rect x="844" y="178" width="270" height="14" fill="#f3f4f6"/>
  <text x="979" y="176" text-anchor="middle" font-size="12" font-weight="700" fill="#9ca3af">SKIPPED  ·  5 roles</text>
  <text x="979" y="200" text-anchor="middle" font-size="11" fill="#9ca3af">Not in roster for this run</text>
  <text x="860" y="228" font-size="12" fill="#9ca3af">— AppSec Engineer</text>
  <text x="860" y="252" font-size="12" fill="#9ca3af">— Mobile EM</text>
  <text x="860" y="276" font-size="12" fill="#9ca3af">— DevOps Engineer</text>
  <text x="860" y="300" font-size="12" fill="#9ca3af">— Enterprise Architect</text>
  <text x="860" y="324" font-size="12" fill="#9ca3af">— QA Lead</text>
  <!-- Footer buttons -->
  <rect x="264" y="670" width="420" height="44" rx="10" fill="#f3f4f6" stroke="#e5e7eb"/>
  <text x="474" y="697" text-anchor="middle" font-size="13" font-weight="600" fill="#374151">← Edit Message</text>
  <rect x="696" y="670" width="484" height="44" rx="10" fill="#4f46e5"/>
  <text x="938" y="697" text-anchor="middle" font-size="13" font-weight="600" fill="#ffffff">⚡ Fire Event — Create 4 Tickets</text>
</svg>
