<svg viewBox="0 0 1200 750" xmlns="http://www.w3.org/2000/svg" font-family="system-ui,-apple-system,sans-serif">
  <rect width="1200" height="750" fill="#f3f4f6"/>
  <rect x="0" y="0" width="220" height="750" fill="#1e2130"/>
  <text x="28" y="36" font-size="14" font-weight="700" fill="#ffffff">CGen PM</text>
  <rect x="16" y="100" width="188" height="36" rx="8" fill="#4f46e5" opacity="0.2"/>
  <text x="36" y="124" font-size="13" font-weight="600" fill="#818cf8">📊  Reports</text>
  <!-- Top bar -->
  <rect x="220" y="0" width="980" height="56" fill="#ffffff" stroke="#e5e7eb"/>
  <text x="248" y="34" font-size="14" font-weight="600" fill="#111827">Reports</text>
  <rect x="860" y="14" width="140" height="28" rx="6" fill="#f3f4f6" stroke="#e5e7eb"/>
  <text x="930" y="33" text-anchor="middle" font-size="12" fill="#6b7280">Last 6 sprints  ▾</text>
  <rect x="1012" y="14" width="168" height="28" rx="6" fill="#f3f4f6" stroke="#e5e7eb"/>
  <text x="1096" y="33" text-anchor="middle" font-size="12" fill="#6b7280">All Projects  ▾</text>
  <!-- Report tabs -->
  <rect x="220" y="56" width="980" height="44" fill="#ffffff" stroke="#e5e7eb"/>
  <text x="248" y="83" font-size="12" fill="#6b7280">Velocity</text>
  <text x="316" y="83" font-size="12" fill="#6b7280">Burn-down</text>
  <rect x="400" y="65" width="96" height="26" rx="6" fill="#eef2ff"/>
  <text x="448" y="83" text-anchor="middle" font-size="12" font-weight="600" fill="#4f46e5">Cycle Time</text>
  <text x="514" y="83" font-size="12" fill="#6b7280">Teams</text>
  <!-- Cycle Time chart card -->
  <rect x="240" y="116" width="940" height="580" rx="10" fill="#ffffff" stroke="#e5e7eb"/>
  <text x="264" y="148" font-size="15" font-weight="700" fill="#111827">Cycle Time by Task Type</text>
  <text x="264" y="166" font-size="12" fill="#9ca3af">Average days from task creation to Done · Last 6 sprints</text>
  <!-- Chart area -->
  <!-- Y axis -->
  <line x1="310" y1="188" x2="310" y2="540" stroke="#e5e7eb" stroke-width="1.5"/>
  <text x="298" y="192" text-anchor="end" font-size="11" fill="#9ca3af">14d</text>
  <line x1="305" y1="188" x2="310" y2="188" stroke="#e5e7eb"/>
  <text x="298" y="252" text-anchor="end" font-size="11" fill="#9ca3af">10d</text>
  <line x1="305" y1="248" x2="310" y2="248" stroke="#e5e7eb"/>
  <text x="298" y="312" text-anchor="end" font-size="11" fill="#9ca3af">7d</text>
  <line x1="305" y1="308" x2="310" y2="308" stroke="#e5e7eb"/>
  <text x="298" y="372" text-anchor="end" font-size="11" fill="#9ca3af">5d</text>
  <line x1="305" y1="368" x2="310" y2="368" stroke="#e5e7eb"/>
  <text x="298" y="432" text-anchor="end" font-size="11" fill="#9ca3af">3d</text>
  <line x1="305" y1="428" x2="310" y2="428" stroke="#e5e7eb"/>
  <text x="298" y="492" text-anchor="end" font-size="11" fill="#9ca3af">1d</text>
  <line x1="305" y1="488" x2="310" y2="488" stroke="#e5e7eb"/>
  <line x1="310" y1="540" x2="1140" y2="540" stroke="#e5e7eb" stroke-width="1.5"/>
  <!-- Grid lines -->
  <line x1="310" y1="188" x2="1140" y2="188" stroke="#f3f4f6"/>
  <line x1="310" y1="248" x2="1140" y2="248" stroke="#f3f4f6"/>
  <line x1="310" y1="308" x2="1140" y2="308" stroke="#f3f4f6"/>
  <line x1="310" y1="368" x2="1140" y2="368" stroke="#f3f4f6"/>
  <line x1="310" y1="428" x2="1140" y2="428" stroke="#f3f4f6"/>
  <line x1="310" y1="488" x2="1140" y2="488" stroke="#f3f4f6"/>
  <!-- Y axis label -->
  <text x="264" y="370" font-size="11" fill="#9ca3af" transform="rotate(-90 264 370)" text-anchor="middle">Avg Days</text>
  <!-- Bars — Feature (blue), Bug (red), Chore (grey), Spike (purple) -->
  <!-- Sprint 1 group -->
  <text x="380" y="560" text-anchor="middle" font-size="11" fill="#9ca3af">Spr 1</text>
  <rect x="334" y="308" width="22" height="232" rx="3" fill="#3b82f6" opacity="0.8"/>
  <rect x="360" y="368" width="22" height="172" rx="3" fill="#ef4444" opacity="0.8"/>
  <rect x="386" y="428" width="22" height="112" rx="3" fill="#6b7280" opacity="0.6"/>
  <!-- Sprint 2 group -->
  <text x="518" y="560" text-anchor="middle" font-size="11" fill="#9ca3af">Spr 2</text>
  <rect x="472" y="278" width="22" height="262" rx="3" fill="#3b82f6" opacity="0.8"/>
  <rect x="498" y="338" width="22" height="202" rx="3" fill="#ef4444" opacity="0.8"/>
  <rect x="524" y="428" width="22" height="112" rx="3" fill="#6b7280" opacity="0.6"/>
  <!-- Sprint 3 group -->
  <text x="656" y="560" text-anchor="middle" font-size="11" fill="#9ca3af">Spr 3</text>
  <rect x="610" y="248" width="22" height="292" rx="3" fill="#3b82f6" opacity="0.8"/>
  <rect x="636" y="308" width="22" height="232" rx="3" fill="#ef4444" opacity="0.8"/>
  <rect x="662" y="428" width="22" height="112" rx="3" fill="#6b7280" opacity="0.6"/>
  <!-- Sprint 4 group -->
  <text x="794" y="560" text-anchor="middle" font-size="11" fill="#9ca3af">Spr 4</text>
  <rect x="748" y="278" width="22" height="262" rx="3" fill="#3b82f6" opacity="0.8"/>
  <rect x="774" y="368" width="22" height="172" rx="3" fill="#ef4444" opacity="0.8"/>
  <rect x="800" y="438" width="22" height="102" rx="3" fill="#6b7280" opacity="0.6"/>
  <rect x="826" y="408" width="22" height="132" rx="3" fill="#7c3aed" opacity="0.7"/>
  <!-- Sprint 5 group -->
  <text x="932" y="560" text-anchor="middle" font-size="11" fill="#9ca3af">Spr 5</text>
  <rect x="886" y="248" width="22" height="292" rx="3" fill="#3b82f6" opacity="0.8"/>
  <rect x="912" y="338" width="22" height="202" rx="3" fill="#ef4444" opacity="0.8"/>
  <rect x="938" y="428" width="22" height="112" rx="3" fill="#6b7280" opacity="0.6"/>
  <rect x="964" y="398" width="22" height="142" rx="3" fill="#7c3aed" opacity="0.7"/>
  <!-- Sprint 6 (current) -->
  <text x="1070" y="560" text-anchor="middle" font-size="11" fill="#9ca3af">Spr 6</text>
  <rect x="1024" y="278" width="22" height="262" rx="3" fill="#3b82f6" opacity="0.8"/>
  <rect x="1050" y="308" width="22" height="232" rx="3" fill="#ef4444" opacity="0.8"/>
  <rect x="1076" y="428" width="22" height="112" rx="3" fill="#6b7280" opacity="0.6"/>
  <rect x="1102" y="368" width="22" height="172" rx="3" fill="#7c3aed" opacity="0.7"/>
  <!-- Legend -->
  <rect x="264" y="188" width="16" height="12" rx="2" fill="#3b82f6"/>
  <text x="286" y="199" font-size="11" fill="#374151">Feature</text>
  <rect x="344" y="188" width="16" height="12" rx="2" fill="#ef4444"/>
  <text x="366" y="199" font-size="11" fill="#374151">Bug</text>
  <rect x="406" y="188" width="16" height="12" rx="2" fill="#6b7280"/>
  <text x="428" y="199" font-size="11" fill="#374151">Chore</text>
  <rect x="480" y="188" width="16" height="12" rx="2" fill="#7c3aed"/>
  <text x="502" y="199" font-size="11" fill="#374151">Spike</text>
  <!-- Annotation callout -->
  <rect x="700" y="188" width="300" height="56" rx="8" fill="#fffbeb" stroke="#fde68a"/>
  <text x="716" y="208" font-size="12" font-weight="700" fill="#92400e">⚠ Bug cycle time increasing</text>
  <text x="716" y="224" font-size="11" fill="#92400e">Bugs taking 5–8d avg. Target is ≤3d.</text>
  <text x="716" y="240" font-size="11" fill="#92400e">Consider dedicated bug rotation.</text>
  <!-- Insight box below chart -->
  <rect x="264" y="592" width="916" height="84" rx="8" fill="#f0fdf4" stroke="#bbf7d0"/>
  <text x="284" y="614" font-size="12" font-weight="700" fill="#15803d">💡 How to read this chart</text>
  <text x="284" y="632" font-size="12" fill="#374151">Lower = faster delivery. Compare <tspan font-weight="600">Bugs</tspan> to <tspan font-weight="600">Features</tspan> — if Bug bars grow taller over time, your bug</text>
  <text x="284" y="650" font-size="12" fill="#374151">resolution process is slowing down. <tspan font-weight="600">Spikes</tspan> naturally take longer; outliers should be reviewed for</text>
  <text x="284" y="668" font-size="12" fill="#374151">scope creep. Filter by project or team in the dropdowns above.</text>
</svg>
